<svg width="41" height="35" viewBox="0 0 41 35" fill="none" xmlns="http://www.w3.org/2000/svg">
<path d="M40.05 22.1435L28.3783 0.919289C27.7041 -0.30643 25.9433 -0.30643 25.2693 0.919289L20.1179 10.2867L26.6382 22.1435C26.775 22.3871 26.8384 22.6651 26.8207 22.9439C26.7676 23.7348 26.0531 24.4299 25.0846 24.4303H25.0854C25.0847 24.4303 25.0843 24.4305 25.0837 24.4305H22.9729V32.524C22.9729 32.7225 23.012 32.9191 23.088 33.1026C23.1639 33.286 23.2753 33.4527 23.4156 33.5931C23.556 33.7335 23.7226 33.8449 23.906 33.9208C24.0893 33.9968 24.2859 34.0359 24.4844 34.0359H29.1633C29.5642 34.0359 29.9486 33.8766 30.2321 33.5931C30.5155 33.3096 30.6748 32.925 30.6748 32.524V24.4303H38.4954C39.7873 24.4303 40.6277 23.1941 40.05 22.1435Z" fill="white"/>
<path d="M14.9664 0.919315C14.2923 -0.306438 12.5316 -0.306438 11.8574 0.919315L0.185686 22.1435C-0.392039 23.1941 0.448306 24.4303 1.74023 24.4303H9.56097V32.524C9.56098 32.925 9.72021 33.3096 10.0036 33.5931C10.2871 33.8766 10.6715 34.0359 11.0723 34.0359H15.7513C16.1521 34.0359 16.5366 33.8766 16.82 33.5931C17.1035 33.3096 17.2627 32.925 17.2627 32.524V24.4305H15.152C15.1514 24.4305 15.151 24.4303 15.1503 24.4303H15.1511C14.1826 24.4299 13.4681 23.7348 13.4149 22.9439C13.3973 22.6651 13.4607 22.3871 13.5975 22.1435L20.1178 10.2867L14.9664 0.919315Z" fill="white"/>
</svg>
