<svg viewBox="-23.044000000000004 -18.006999999999998 10828.765 2026.6576107229826" xmlns="http://www.w3.org/2000/svg" width="2500" height="471"><path d="M2354.161 1301.182L1668.091 54.019c-39.63-72.025-143.129-72.025-182.749 0l-302.8 550.443 383.266 696.72a85.084 85.084 0 0 1 10.73 47.037c-3.122 46.472-45.124 87.316-102.054 87.34h.047c-.036 0-.061.011-.1.011h-124.07v475.586a88.843 88.843 0 0 0 88.844 88.844h275.032a88.843 88.843 0 0 0 88.843-88.843v-475.6h459.7c75.943.002 125.341-72.636 91.381-134.375z" fill="#fff"/><path d="M879.734 54.02c-39.621-72.027-143.119-72.027-182.749 0L10.915 1301.183c-33.959 61.738 15.437 134.376 91.377 134.376H562v475.6A88.843 88.843 0 0 0 650.839 2000h275.032a88.843 88.843 0 0 0 88.843-88.843v-475.586H890.646c-.035 0-.062-.012-.1-.012h.047c-56.93-.023-98.932-40.868-102.054-87.34a85.079 85.079 0 0 1 10.729-47.036l383.267-696.72z" fill="#fff"/></svg>