<svg width="494" height="408" viewBox="0 0 494 408" fill="none" xmlns="http://www.w3.org/2000/svg">
<path d="M89.3819 154.988C84.3208 159.669 80.3153 165.519 80.1165 168.175C80.0716 171.09 76.0007 175.036 70.8523 177.179C65.704 179.322 56.9028 184.915 50.9836 189.953L40.2676 198.917L48.9753 211.702C61.509 230.295 82.6669 246.586 103.959 254.133C119.665 259.502 121.557 259.679 116.741 254.605C90.7241 227.789 91.4295 222.991 119.74 227.939C146.006 232.451 168.263 251.18 171.292 271.798C172.631 281.215 169.639 282.782 154.615 280.348L143.242 278.646L147.244 285.346C152.477 294.108 170.424 305.621 186.394 310.236C197.678 313.584 198.976 313.365 200.254 308.329C200.871 305.176 205.383 297.185 210.379 290.602C217.443 280.905 219.841 278.941 223.691 281.2C232.115 285.738 256.021 306.033 259.847 311.84C261.694 314.933 265.763 319.353 268.6 321.711C280.213 330.392 256.161 280.556 242.196 266.742C237.38 261.668 237.6 259.646 244.994 251.098C263.568 230.177 268.09 188.719 254.699 166.3C251.929 161.662 250.456 156.805 251.271 155.179C255.43 149.587 346.145 176.504 376.124 192.019C383.515 196.021 389.85 198.855 390.422 198.617C391.28 198.259 382.504 191.938 371.375 184.665C348.809 169.604 304.422 148.502 269.029 135.883C244.063 126.969 241.337 123.599 247.698 110.334C253.51 97.9411 235.953 102.03 220.352 116.567C212.188 123.826 209.746 124.521 192.499 124.942C150.019 125.569 108.372 137.754 89.3819 154.988ZM165.895 148.562C174.277 147.648 189.633 147.049 199.796 147.323L218.671 147.833L229.599 166.129C249.3 199.114 241.724 227.685 204.162 261.658L195.734 269.67L189.006 255.417C176.321 228.2 146.1 209.89 104.282 204.45C90.7316 202.689 79.6229 200.234 79.7114 198.588C80.0205 194.92 130.228 174.346 143.362 172.419C158.233 170.413 152.052 167.837 130.692 166.753L113.555 166.163L132.146 158.426C142.289 153.883 157.514 149.477 165.895 148.562Z" fill="url(#paint0_linear)"/>
<mask id="path-2-inside-1" fill="white">
<rect y="71.2877" width="427.89" height="285.606" rx="11"/>
</mask>
<rect y="71.2877" width="427.89" height="285.606" rx="11" stroke="black" stroke-width="28" mask="url(#path-2-inside-1)"/>
<rect x="176.346" y="356.891" width="76.7431" height="42.8666" fill="black"/>
<rect x="86.5397" y="391.819" width="254.722" height="15.8765" fill="black"/>
<path d="M361.907 56.1042C361.736 56.2662 361.029 56.9474 360.322 57.6285C353.223 64.5166 348.255 72.906 345.618 82.4294C343.788 89.0158 343.256 94.7331 343.812 101.731C344.012 104.155 345.424 111.183 346.146 113.233L346.569 114.488L346.125 115.374C344.967 117.611 343.899 119.931 342.883 122.354C337.195 135.985 336.923 146.308 342.143 151.3C344.868 153.895 348.591 154.953 353.806 154.605C355.365 154.496 359.501 153.678 361.47 153.075C372.975 149.602 387.139 140.918 401.073 128.818C408.486 122.38 416.79 113.972 422.737 106.899L424.271 105.057L425.339 105.33C428.207 106.087 431.134 105.024 432.747 102.654C434.801 99.6551 433.993 95.6557 430.949 93.6372C429.369 92.5967 427.659 92.2655 425.802 92.6328C424.032 92.9971 422.726 93.8252 421.639 95.2795C420.487 96.8462 420.12 98.9415 420.687 100.88L420.963 101.851L419.931 102.939C409.091 114.213 395.785 125.32 384.363 132.622C382.181 134.022 378.809 136.042 378.365 136.23C378.067 136.346 374.685 134.323 372.656 132.816C369.255 130.284 366.761 127.885 364.174 124.694C360.875 120.618 358.561 116.489 356.668 111.294C355.81 108.943 354.488 102.695 354.336 100.218C353.672 89.7668 356.233 80.3723 362.059 71.8131L363.639 69.4923L363.483 68.2555C363.176 65.7382 362.802 61.6389 362.617 58.7981C362.53 57.1916 362.441 55.8561 362.433 55.8151C362.407 55.692 362.21 55.8021 361.907 56.1042ZM355.297 130.438C358.343 134.351 361.704 137.603 366.361 141.168L366.9 141.574L366.397 141.759C365.039 142.27 362.175 142.936 360.659 143.108C356.893 143.525 354.337 142.792 352.805 140.859C352.228 140.133 352.12 139.897 351.818 138.661C351.401 137.02 351.377 135.715 351.733 133.707C351.962 132.351 352.635 129.896 353.138 128.658L353.406 127.978L353.728 128.398C353.895 128.636 354.599 129.551 355.297 130.438Z" fill="url(#paint1_linear)"/>
<path d="M435.728 53.2655C435.734 53.293 435.868 53.3806 436.027 53.4491C436.273 53.5861 436.284 53.5696 436.058 53.386C435.831 53.2024 435.705 53.1559 435.728 53.2655Z" fill="url(#paint2_linear)"/>
<path d="M451.735 82.8577C451.741 82.8851 451.875 82.9727 452.034 83.0412C452.28 83.1782 452.291 83.1617 452.064 82.9781C451.838 82.7945 451.712 82.748 451.735 82.8577Z" fill="url(#paint3_linear)"/>
<path d="M456.026 83.0467C455.962 82.8228 455.688 81.8924 455.414 80.962C452.618 71.5972 447.443 63.3266 440.124 56.4986C435.065 51.7707 430.166 48.567 423.589 45.6752C421.307 44.6792 414.291 42.5026 412.095 42.1318L410.759 41.8894L410.175 41.0844C408.714 39.0212 407.136 36.9957 405.441 34.9637C395.886 23.5584 386.708 18.3615 379.696 20.4097C376.046 21.4852 373.301 24.1495 371.106 28.7629C370.455 30.1445 369.203 34.0635 368.8 36.0317C366.397 47.5097 367.415 63.7618 371.624 81.4596C373.862 90.8753 377.45 101.999 380.967 110.471L381.89 112.664L381.13 113.443C379.068 115.524 378.619 118.53 379.98 121.046C381.696 124.239 385.69 125.474 388.975 123.849C390.673 123.003 391.794 121.705 392.356 119.945C392.879 118.261 392.76 116.749 391.972 115.123C391.113 113.388 389.401 112.067 387.38 111.617L386.371 111.386L385.888 109.983C380.935 95.3199 377.321 78.6344 376.231 65.3857C376.018 62.8516 375.818 59.006 375.862 58.5371C375.901 58.2273 379.352 56.317 381.687 55.312C385.606 53.6307 388.968 52.658 393.09 51.988C398.352 51.136 403.188 51.1492 408.782 52.0344C411.315 52.4337 417.584 54.3119 419.891 55.3736C429.634 59.8352 436.873 66.5368 441.788 75.6205L443.121 78.0836L444.311 78.5453C446.729 79.4944 450.605 81.147 453.255 82.3563C454.745 83.0547 455.992 83.6212 456.034 83.6337C456.157 83.6709 456.152 83.4503 456.026 83.0467ZM392.18 41.6582C387.187 42.3723 382.638 43.6734 377.183 45.9286L376.558 46.1929L376.633 45.6748C376.826 44.2715 377.602 41.5099 378.177 40.1342C379.612 36.7237 381.503 34.8977 383.983 34.5212C384.915 34.3788 385.179 34.4 386.439 34.7366C388.119 35.1708 389.308 35.7782 390.947 37.0476C392.059 37.8949 393.949 39.6493 394.824 40.6735L395.308 41.2289L394.774 41.3014C394.479 41.3294 393.316 41.4897 392.18 41.6582Z" fill="url(#paint4_linear)"/>
<path d="M423.073 147.343C423.046 147.335 422.903 147.409 422.765 147.513C422.525 147.659 422.534 147.677 422.807 147.569C423.08 147.462 423.182 147.376 423.073 147.343Z" fill="url(#paint5_linear)"/>
<path d="M388.692 146.751C388.665 146.743 388.522 146.816 388.385 146.921C388.144 147.067 388.153 147.085 388.426 146.977C388.699 146.87 388.801 146.784 388.692 146.751Z" fill="url(#paint6_linear)"/>
<path d="M383.989 147.844C384.219 147.906 385.18 148.157 386.142 148.407C395.837 150.9 405.794 150.847 415.582 148.263C422.356 146.482 427.703 144.049 433.64 140.057C435.693 138.668 441.225 133.942 442.684 132.302L443.585 131.314L444.596 131.241C447.167 131.087 449.765 130.815 452.43 130.448C467.405 128.359 476.714 123.386 478.52 116.487C479.451 112.891 478.516 109.231 475.58 105.026C474.697 103.771 471.887 100.71 470.36 99.36C461.479 91.4458 446.627 83.9235 428.858 78.3161C419.404 75.3326 407.751 72.5935 398.471 71.1618L396.062 70.8014L395.767 69.7669C394.994 66.9762 392.575 65.0533 389.656 64.8922C385.958 64.6781 382.812 67.3712 382.552 70.9452C382.424 72.7966 382.991 74.3997 384.253 75.7742C385.468 77.0769 386.862 77.7569 388.701 77.9376C390.674 78.1157 392.72 77.3686 394.157 75.9157L394.88 75.1945L396.366 75.5138C411.843 78.9385 428.414 84.5193 440.655 90.4344C442.999 91.5623 446.492 93.3763 446.882 93.6549C447.136 93.8468 447.042 97.7068 446.726 100.171C446.189 104.303 445.315 107.606 443.783 111.386C441.824 116.211 439.322 120.234 435.66 124.441C434.003 126.346 429.119 130.604 426.995 131.98C418.044 137.802 408.407 140.384 397.868 139.802L395.01 139.644L393.99 140.399C391.908 141.925 388.455 144.304 386.024 145.89C384.641 146.773 383.499 147.52 383.467 147.548C383.371 147.632 383.568 147.741 383.989 147.844ZM453.358 115.948C455.3 111.419 456.496 106.958 457.317 101.25L457.406 100.592L457.824 100.922C458.962 101.805 460.997 103.875 461.914 105.062C464.181 108.015 464.817 110.531 463.872 112.792C463.517 113.642 463.362 113.851 462.417 114.728C461.169 115.905 460.021 116.583 458.058 117.295C456.738 117.786 454.218 118.457 452.864 118.659L452.125 118.776L452.337 118.294C452.464 118.034 452.921 116.982 453.358 115.948Z" fill="url(#paint7_linear)"/>
<path d="M344.279 87.2644C344.301 87.246 344.309 87.0891 344.288 86.9206C344.283 86.6448 344.263 86.6436 344.217 86.9263C344.171 87.2089 344.194 87.3382 344.279 87.2644Z" fill="url(#paint8_linear)"/>
<path d="M362.507 58.915C362.528 58.8965 362.537 58.7396 362.516 58.5711C362.511 58.2953 362.491 58.2941 362.445 58.5768C362.399 58.8594 362.422 58.9887 362.507 58.915Z" fill="url(#paint9_linear)"/>
<defs>
<linearGradient id="paint0_linear" x1="285.759" y1="316.537" x2="197.825" y2="105.255" gradientUnits="userSpaceOnUse">
<stop stop-color="#FFF500" stop-opacity="0.9"/>
<stop offset="1" stop-color="#5BB714"/>
</linearGradient>
<linearGradient id="paint1_linear" x1="391.707" y1="147.255" x2="373.185" y2="53.6252" gradientUnits="userSpaceOnUse">
<stop stop-color="#0FDF0B"/>
<stop offset="1" stop-color="#B0B416"/>
</linearGradient>
<linearGradient id="paint2_linear" x1="436.012" y1="53.58" x2="435.931" y2="53.1719" gradientUnits="userSpaceOnUse">
<stop stop-color="#0FDF0B"/>
<stop offset="1" stop-color="#B0B416"/>
</linearGradient>
<linearGradient id="paint3_linear" x1="452.018" y1="83.1721" x2="451.938" y2="82.764" gradientUnits="userSpaceOnUse">
<stop stop-color="#0FDF0B"/>
<stop offset="1" stop-color="#B0B416"/>
</linearGradient>
<linearGradient id="paint4_linear" x1="359.504" y1="64.6075" x2="452.674" y2="94.361" gradientUnits="userSpaceOnUse">
<stop stop-color="#0FDF0B"/>
<stop offset="1" stop-color="#B0B416"/>
</linearGradient>
<linearGradient id="paint5_linear" x1="422.656" y1="147.437" x2="423.058" y2="147.565" gradientUnits="userSpaceOnUse">
<stop stop-color="#0FDF0B"/>
<stop offset="1" stop-color="#B0B416"/>
</linearGradient>
<linearGradient id="paint6_linear" x1="388.275" y1="146.845" x2="388.677" y2="146.973" gradientUnits="userSpaceOnUse">
<stop stop-color="#0FDF0B"/>
<stop offset="1" stop-color="#B0B416"/>
</linearGradient>
<linearGradient id="paint7_linear" x1="449.956" y1="76.8942" x2="378.628" y2="142.369" gradientUnits="userSpaceOnUse">
<stop stop-color="#0FDF0B"/>
<stop offset="1" stop-color="#B0B416"/>
</linearGradient>
<linearGradient id="paint8_linear" x1="344.412" y1="86.8689" x2="344.104" y2="87.1514" gradientUnits="userSpaceOnUse">
<stop stop-color="#0FDF0B"/>
<stop offset="1" stop-color="#B0B416"/>
</linearGradient>
<linearGradient id="paint9_linear" x1="362.639" y1="58.5195" x2="362.332" y2="58.8019" gradientUnits="userSpaceOnUse">
<stop stop-color="#0FDF0B"/>
<stop offset="1" stop-color="#B0B416"/>
</linearGradient>
</defs>
</svg>
