<svg width="351" height="297" viewBox="0 0 351 297" fill="none" xmlns="http://www.w3.org/2000/svg">
<path d="M63.2936 112.956C59.7097 116.364 56.8733 120.624 56.7325 122.559C56.7007 124.682 53.818 127.556 50.1723 129.116C46.5266 130.677 40.2943 134.751 36.1028 138.419L28.5145 144.948L34.6806 154.259C43.5561 167.8 58.5385 179.664 73.6163 185.16C84.7378 189.07 86.0774 189.2 82.667 185.504C64.244 165.974 64.7435 162.48 84.7912 166.084C103.39 169.37 119.151 183.01 121.296 198.025C122.245 204.884 120.126 206.025 109.487 204.252L101.433 203.013L104.267 207.892C107.973 214.273 120.682 222.658 131.99 226.019C139.981 228.457 140.9 228.298 141.805 224.63C142.242 222.334 145.437 216.514 148.974 211.72C153.977 204.657 155.675 203.228 158.401 204.873C164.366 208.177 181.295 222.958 184.005 227.187C185.312 229.439 188.193 232.658 190.202 234.376C198.426 240.698 181.394 204.404 171.505 194.343C168.095 190.648 168.251 189.175 173.487 182.95C186.639 167.713 189.841 137.521 180.359 121.194C178.397 117.816 177.354 114.279 177.931 113.094C180.877 109.022 245.114 128.625 266.343 139.924C271.577 142.839 276.063 144.902 276.468 144.729C277.075 144.469 270.861 139.865 262.98 134.568C247 123.599 215.569 108.232 190.507 99.0418C172.828 92.5497 170.897 90.0957 175.401 80.4348C179.517 71.4094 167.085 74.3875 156.037 84.9744C150.256 90.2607 148.527 90.7666 136.313 91.0734C106.232 91.5301 76.7409 100.404 63.2936 112.956ZM117.475 108.276C123.41 107.61 134.284 107.173 141.481 107.373L154.846 107.745L162.585 121.069C176.535 145.091 171.171 165.899 144.572 190.64L138.604 196.475L133.84 186.095C124.857 166.274 103.457 152.939 73.8449 148.977C64.2493 147.695 56.383 145.907 56.4457 144.708C56.6645 142.037 92.2176 127.054 101.518 125.65C112.049 124.189 107.672 122.313 92.5463 121.523L80.4113 121.094L93.5762 115.459C100.759 112.15 111.539 108.942 117.475 108.276Z" fill="url(#paint0_linear)"/>
<mask id="path-2-inside-1" fill="white">
<rect y="52.0001" width="303" height="208" rx="11"/>
</mask>
<rect y="52.0001" width="303" height="208" rx="11" stroke="black" stroke-width="28" mask="url(#path-2-inside-1)"/>
<rect x="124.875" y="260" width="54.3438" height="31.2188" fill="black"/>
<rect x="61.2812" y="285.438" width="180.375" height="11.5625" fill="black"/>
<circle cx="283.952" cy="68.9455" r="46.8727" fill="white"/>
<path d="M256.275 40.9415C256.154 41.0596 255.653 41.5556 255.152 42.0517C250.125 47.0681 246.607 53.1779 244.74 60.1136C243.444 64.9103 243.067 69.074 243.461 74.1702C243.603 75.936 244.602 81.054 245.114 82.5474L245.414 83.4615L245.099 84.1064C244.279 85.7358 243.523 87.4249 242.803 89.1895C238.775 99.1167 238.583 106.635 242.279 110.271C244.209 112.16 246.845 112.931 250.538 112.677C251.642 112.598 254.571 112.002 255.965 111.563C264.112 109.034 274.142 102.709 284.009 93.8971C289.258 89.2089 295.139 83.0852 299.35 77.9339L300.436 76.5927L301.192 76.7915C303.223 77.343 305.296 76.5686 306.439 74.8424C307.893 72.6586 307.321 69.746 305.165 68.276C304.046 67.5182 302.835 67.277 301.52 67.5445C300.267 67.8098 299.342 68.4129 298.572 69.472C297.757 70.613 297.497 72.1389 297.898 73.551L298.094 74.2581L297.363 75.0499C289.687 83.2608 280.265 91.3498 272.177 96.6675C270.631 97.6873 268.244 99.1584 267.929 99.295C267.718 99.3795 265.323 97.9062 263.886 96.8086C261.478 94.9646 259.712 93.2182 257.88 90.8938C255.544 87.9252 253.905 84.9185 252.565 81.1352C251.957 79.4228 251.021 74.8727 250.913 73.0689C250.443 65.4572 252.257 58.6155 256.383 52.382L257.501 50.6918L257.391 49.7911C257.173 47.9577 256.908 44.9723 256.778 42.9035C256.716 41.7335 256.653 40.7609 256.647 40.731C256.629 40.6413 256.489 40.7215 256.275 40.9415ZM251.594 95.0771C253.751 97.9267 256.131 100.295 259.429 102.892L259.811 103.187L259.454 103.322C258.493 103.694 256.465 104.179 255.391 104.304C252.724 104.608 250.914 104.074 249.829 102.666C249.421 102.137 249.345 101.966 249.13 101.066C248.835 99.8707 248.818 98.9199 249.07 97.4578C249.233 96.4705 249.709 94.6827 250.065 93.7804L250.255 93.2854L250.483 93.5917C250.601 93.7647 251.1 94.4309 251.594 95.0771Z" fill="url(#paint1_linear)"/>
<path d="M308.55 38.8751C308.554 38.895 308.65 38.9583 308.763 39.0076C308.939 39.1064 308.946 39.0944 308.785 38.9618C308.624 38.8292 308.534 38.7957 308.55 38.8751Z" fill="url(#paint2_linear)"/>
<path d="M319.885 60.4272C319.889 60.4471 319.985 60.5104 320.098 60.5597C320.273 60.6585 320.281 60.6465 320.12 60.5139C319.959 60.3813 319.869 60.3478 319.885 60.4272Z" fill="url(#paint3_linear)"/>
<path d="M322.923 60.5638C322.878 60.4007 322.684 59.7231 322.489 59.0456C320.509 52.2254 316.845 46.2021 311.662 41.2294C308.08 37.7862 304.611 35.453 299.954 33.347C298.337 32.6217 293.369 31.0365 291.814 30.7664L290.869 30.5899L290.455 30.0036C289.42 28.5011 288.303 27.0259 287.102 25.5461C280.336 17.2399 273.837 13.4551 268.872 14.9467C266.287 15.73 264.343 17.6704 262.789 21.0302C262.328 22.0364 261.442 24.8905 261.156 26.3239C259.455 34.683 260.175 46.5191 263.155 59.408C264.741 66.2652 267.281 74.3662 269.772 80.5359L270.425 82.1332L269.887 82.7005C268.427 84.2161 268.109 86.4058 269.073 88.2378C270.288 90.5629 273.117 91.4625 275.442 90.2794C276.645 89.663 277.439 88.7174 277.837 87.436C278.207 86.2098 278.123 85.1087 277.565 83.9242C276.957 82.6604 275.744 81.6985 274.313 81.3712L273.599 81.2027L273.256 80.1809C269.749 69.5021 267.19 57.3504 266.418 47.7017C266.267 45.8562 266.126 43.0555 266.157 42.714C266.185 42.4884 268.628 41.0972 270.282 40.3653C273.057 39.1408 275.437 38.4325 278.356 37.9445C282.083 37.324 285.507 37.3336 289.468 37.9783C291.262 38.2691 295.702 39.6369 297.335 40.4102C304.234 43.6594 309.36 48.54 312.841 55.1555L313.785 56.9493L314.627 57.2855C316.339 57.9767 319.084 59.1803 320.961 60.061C322.016 60.5697 322.899 60.9822 322.928 60.9913C323.016 61.0184 323.012 60.8577 322.923 60.5638ZM277.712 30.4215C274.176 30.9416 270.955 31.8891 267.092 33.5316L266.65 33.724L266.703 33.3467C266.839 32.3247 267.389 30.3135 267.796 29.3117C268.812 26.8279 270.151 25.498 271.907 25.2238C272.567 25.1201 272.754 25.1355 273.647 25.3807C274.836 25.6969 275.678 26.1393 276.839 27.0637C277.626 27.6808 278.965 28.9585 279.584 29.7044L279.927 30.1089L279.549 30.1617C279.34 30.1821 278.516 30.2988 277.712 30.4215Z" fill="url(#paint4_linear)"/>
<path d="M299.59 107.389C299.571 107.383 299.47 107.436 299.372 107.512C299.201 107.618 299.208 107.631 299.402 107.553C299.595 107.475 299.668 107.413 299.59 107.389Z" fill="url(#paint5_linear)"/>
<path d="M275.243 106.96C275.224 106.954 275.122 107.008 275.025 107.083C274.854 107.189 274.86 107.202 275.054 107.124C275.248 107.047 275.321 106.984 275.243 106.96Z" fill="url(#paint6_linear)"/>
<path d="M271.91 107.753C272.073 107.798 272.754 107.981 273.435 108.163C280.3 109.979 287.351 109.94 294.282 108.058C299.079 106.761 302.865 104.989 307.069 102.082C308.523 101.07 312.441 97.6283 313.473 96.4342L314.112 95.7145L314.828 95.6616C316.648 95.549 318.488 95.3511 320.375 95.0839C330.98 93.5623 337.571 89.941 338.85 84.9165C339.51 82.2974 338.848 79.6321 336.768 76.5695C336.143 75.6557 334.153 73.4261 333.072 72.4432C326.783 66.6794 316.266 61.2011 303.683 57.1174C296.989 54.9446 288.737 52.9498 282.165 51.9071L280.46 51.6447L280.25 50.8913C279.703 48.8588 277.99 47.4585 275.924 47.3411C273.305 47.1852 271.077 49.1465 270.893 51.7494C270.802 53.0977 271.204 54.2652 272.097 55.2662C272.958 56.215 273.945 56.7102 275.247 56.8417C276.644 56.9714 278.093 56.4274 279.111 55.3693L279.623 54.844L280.675 55.0766C291.635 57.5707 303.369 61.6351 312.037 65.9429C313.697 66.7643 316.17 68.0854 316.447 68.2883C316.626 68.4281 316.56 71.2392 316.336 73.0335C315.956 76.0428 315.337 78.4483 314.252 81.2016C312.865 84.7152 311.093 87.6455 308.5 90.7091C307.327 92.0968 303.868 95.1976 302.364 96.1993C296.025 100.44 289.202 102.32 281.738 101.896L279.715 101.781L278.992 102.331C277.518 103.442 275.073 105.175 273.352 106.33C272.372 106.973 271.563 107.517 271.541 107.537C271.472 107.598 271.612 107.678 271.91 107.753ZM321.032 84.5239C322.407 81.2255 323.254 77.9763 323.836 73.8194L323.899 73.3406L324.195 73.5806C325.001 74.2239 326.441 75.7311 327.091 76.5959C328.696 78.7461 329.147 80.5787 328.477 82.2253C328.226 82.8446 328.117 82.9968 327.447 83.6354C326.563 84.4924 325.75 84.9862 324.36 85.5048C323.426 85.8621 321.641 86.3511 320.683 86.4982L320.159 86.5837L320.309 86.2322C320.399 86.043 320.723 85.2766 321.032 84.5239Z" fill="url(#paint7_linear)"/>
<path d="M243.79 63.6365C243.805 63.623 243.812 63.5086 243.797 63.3857C243.794 63.1846 243.78 63.1838 243.747 63.39C243.713 63.5963 243.729 63.6905 243.79 63.6365Z" fill="url(#paint8_linear)"/>
<path d="M256.697 42.9875C256.713 42.974 256.719 42.8595 256.705 42.7367C256.702 42.5355 256.687 42.5347 256.654 42.741C256.621 42.9472 256.637 43.0415 256.697 42.9875Z" fill="url(#paint9_linear)"/>
<defs>
<linearGradient id="paint0_linear" x1="202.353" y1="230.607" x2="137.047" y2="78.0364" gradientUnits="userSpaceOnUse">
<stop stop-color="#FFF500" stop-opacity="0.9"/>
<stop offset="1" stop-color="#336D05"/>
</linearGradient>
<linearGradient id="paint1_linear" x1="277.377" y1="107.325" x2="263.534" y2="39.2841" gradientUnits="userSpaceOnUse">
<stop stop-color="#088905"/>
<stop offset="1" stop-color="#B0B416"/>
</linearGradient>
<linearGradient id="paint2_linear" x1="308.752" y1="39.1025" x2="308.692" y2="38.8075" gradientUnits="userSpaceOnUse">
<stop stop-color="#088905"/>
<stop offset="1" stop-color="#B0B416"/>
</linearGradient>
<linearGradient id="paint3_linear" x1="320.087" y1="60.6546" x2="320.027" y2="60.3596" gradientUnits="userSpaceOnUse">
<stop stop-color="#088905"/>
<stop offset="1" stop-color="#B0B416"/>
</linearGradient>
<linearGradient id="paint4_linear" x1="254.573" y1="47.135" x2="320.884" y2="67.7252" gradientUnits="userSpaceOnUse">
<stop stop-color="#088905"/>
<stop offset="1" stop-color="#B0B416"/>
</linearGradient>
<linearGradient id="paint5_linear" x1="299.294" y1="107.456" x2="299.582" y2="107.546" gradientUnits="userSpaceOnUse">
<stop stop-color="#088905"/>
<stop offset="1" stop-color="#B0B416"/>
</linearGradient>
<linearGradient id="paint6_linear" x1="274.947" y1="107.028" x2="275.234" y2="107.117" gradientUnits="userSpaceOnUse">
<stop stop-color="#088905"/>
<stop offset="1" stop-color="#B0B416"/>
</linearGradient>
<linearGradient id="paint7_linear" x1="318.624" y1="56.0819" x2="266.821" y2="102.317" gradientUnits="userSpaceOnUse">
<stop stop-color="#088905"/>
<stop offset="1" stop-color="#B0B416"/>
</linearGradient>
<linearGradient id="paint8_linear" x1="243.885" y1="63.3478" x2="243.66" y2="63.5482" gradientUnits="userSpaceOnUse">
<stop stop-color="#088905"/>
<stop offset="1" stop-color="#B0B416"/>
</linearGradient>
<linearGradient id="paint9_linear" x1="256.792" y1="42.6987" x2="256.568" y2="42.8992" gradientUnits="userSpaceOnUse">
<stop stop-color="#088905"/>
<stop offset="1" stop-color="#B0B416"/>
</linearGradient>
</defs>
</svg>
